<svg xmlns="http://www.w3.org/2000/svg" xmlns:xlink="http://www.w3.org/1999/xlink" width="100" zoomAndPan="magnify" viewBox="0 0 75 74.999997" height="100" preserveAspectRatio="xMidYMid meet" version="1.0"><defs><g/><clipPath id="826669f4dd"><path d="M 2.800781 2.527344 L 72.199219 2.527344 L 72.199219 71.929688 L 2.800781 71.929688 Z M 2.800781 2.527344 " clip-rule="nonzero"/></clipPath><clipPath id="648562ddb0"><path d="M 37.5 2.527344 C 18.335938 2.527344 2.800781 18.0625 2.800781 37.226562 C 2.800781 56.390625 18.335938 71.929688 37.5 71.929688 C 56.664062 71.929688 72.199219 56.390625 72.199219 37.226562 C 72.199219 18.0625 56.664062 2.527344 37.5 2.527344 Z M 37.5 2.527344 " clip-rule="nonzero"/></clipPath><clipPath id="24672b6668"><path d="M 0 0 L 74.609375 0 L 74.609375 74.609375 L 0 74.609375 Z M 0 0 " clip-rule="nonzero"/></clipPath></defs><g clip-path="url(#826669f4dd)"><g clip-path="url(#648562ddb0)"><path fill="#3c6e71" d="M 2.800781 2.527344 L 72.199219 2.527344 L 72.199219 71.929688 L 2.800781 71.929688 Z M 2.800781 2.527344 " fill-opacity="1" fill-rule="nonzero"/></g></g><g clip-path="url(#24672b6668)"><path fill="#ff4b00" d="M 37.503906 -0.00390625 C 16.839844 -0.00390625 0.0898438 16.660156 0.0898438 37.214844 C 0.0898438 57.773438 16.839844 74.433594 37.503906 74.433594 C 58.167969 74.433594 74.917969 57.773438 74.917969 37.214844 C 74.917969 16.660156 58.167969 -0.00390625 37.503906 -0.00390625 Z M 37.503906 68.53125 C 20.117188 68.53125 6.023438 54.511719 6.023438 37.214844 C 6.023438 19.921875 20.117188 5.902344 37.503906 5.902344 C 54.890625 5.902344 68.984375 19.921875 68.984375 37.214844 C 68.984375 54.511719 54.890625 68.53125 37.503906 68.53125 Z M 37.503906 68.53125 " fill-opacity="1" fill-rule="nonzero"/></g><path fill="#ff4b00" d="M 60.949219 38.128906 L 60.964844 38.113281 L 60.964844 38.109375 C 61.457031 37.605469 61.457031 36.808594 60.960938 36.320312 L 42.597656 18.050781 C 42.351562 17.804688 42.023438 17.675781 41.699219 17.675781 C 41.371094 17.675781 41.046875 17.804688 40.796875 18.050781 L 40.777344 18.074219 C 40.535156 18.3125 40.402344 18.632812 40.402344 18.972656 L 40.402344 24.023438 C 40.402344 24.359375 40.535156 24.683594 40.777344 24.917969 L 53.132812 37.214844 L 40.777344 49.511719 C 40.535156 49.75 40.402344 50.070312 40.402344 50.40625 L 40.402344 55.464844 C 40.402344 55.792969 40.535156 56.121094 40.777344 56.355469 L 40.796875 56.378906 C 41.035156 56.617188 41.359375 56.75 41.699219 56.75 C 42.039062 56.75 42.359375 56.617188 42.597656 56.378906 Z M 60.949219 38.128906 " fill-opacity="1" fill-rule="nonzero"/><path fill="#ff4b00" d="M 14.503906 38.128906 L 14.488281 38.113281 L 14.488281 38.109375 C 14 37.605469 14 36.808594 14.488281 36.320312 L 32.855469 18.050781 C 33.105469 17.804688 33.429688 17.675781 33.753906 17.675781 C 34.082031 17.675781 34.40625 17.804688 34.65625 18.050781 L 34.679688 18.074219 C 34.917969 18.3125 35.054688 18.632812 35.054688 18.972656 L 35.054688 24.023438 C 35.054688 24.359375 34.917969 24.683594 34.679688 24.917969 L 22.320312 37.214844 L 34.679688 49.511719 C 34.917969 49.75 35.054688 50.070312 35.054688 50.40625 L 35.054688 55.464844 C 35.054688 55.792969 34.917969 56.121094 34.679688 56.355469 L 34.65625 56.378906 C 34.417969 56.617188 34.09375 56.75 33.753906 56.75 C 33.417969 56.75 33.09375 56.617188 32.855469 56.378906 Z M 14.503906 38.128906 " fill-opacity="1" fill-rule="nonzero"/><g fill="#ffffff" fill-opacity="1"><g transform="translate(13.324941, 47.953307)"><g><path d="M 12.140625 -22.65625 C 13.398438 -22.65625 14.644531 -22.507812 15.875 -22.21875 C 17.101562 -21.9375 18.019531 -21.65625 18.625 -21.375 L 19.515625 -20.9375 L 17.03125 -15.96875 C 15.3125 -16.875 13.679688 -17.328125 12.140625 -17.328125 C 11.285156 -17.328125 10.675781 -17.234375 10.3125 -17.046875 C 9.957031 -16.867188 9.78125 -16.519531 9.78125 -16 C 9.78125 -15.882812 9.796875 -15.769531 9.828125 -15.65625 C 9.859375 -15.539062 9.914062 -15.429688 10 -15.328125 C 10.082031 -15.234375 10.160156 -15.148438 10.234375 -15.078125 C 10.304688 -15.003906 10.425781 -14.925781 10.59375 -14.84375 C 10.769531 -14.757812 10.90625 -14.695312 11 -14.65625 C 11.101562 -14.613281 11.269531 -14.546875 11.5 -14.453125 C 11.726562 -14.367188 11.898438 -14.304688 12.015625 -14.265625 C 12.128906 -14.222656 12.320312 -14.15625 12.59375 -14.0625 C 12.863281 -13.976562 13.070312 -13.925781 13.21875 -13.90625 C 14.101562 -13.644531 14.875 -13.359375 15.53125 -13.046875 C 16.1875 -12.734375 16.878906 -12.300781 17.609375 -11.75 C 18.335938 -11.207031 18.898438 -10.519531 19.296875 -9.6875 C 19.703125 -8.863281 19.90625 -7.921875 19.90625 -6.859375 C 19.90625 -1.859375 16.429688 0.640625 9.484375 0.640625 C 7.910156 0.640625 6.414062 0.398438 5 -0.078125 C 3.582031 -0.566406 2.5625 -1.054688 1.9375 -1.546875 L 0.984375 -2.3125 L 4.078125 -7.515625 C 4.304688 -7.304688 4.601562 -7.066406 4.96875 -6.796875 C 5.34375 -6.523438 6.015625 -6.15625 6.984375 -5.6875 C 7.960938 -5.21875 8.8125 -4.984375 9.53125 -4.984375 C 11.101562 -4.984375 11.890625 -5.507812 11.890625 -6.5625 C 11.890625 -7.050781 11.6875 -7.429688 11.28125 -7.703125 C 10.882812 -7.972656 10.207031 -8.28125 9.25 -8.625 C 8.289062 -8.96875 7.539062 -9.28125 7 -9.5625 C 5.625 -10.28125 4.535156 -11.085938 3.734375 -11.984375 C 2.929688 -12.890625 2.53125 -14.085938 2.53125 -15.578125 C 2.53125 -17.804688 3.394531 -19.539062 5.125 -20.78125 C 6.851562 -22.03125 9.191406 -22.65625 12.140625 -22.65625 Z M 12.140625 -22.65625 "/></g></g></g><g fill="#ffffff" fill-opacity="1"><g transform="translate(38.881635, 46.898726)"><g><path d="M 13.21875 -15.21875 C 11.894531 -15.21875 10.753906 -14.722656 9.796875 -13.734375 C 8.847656 -12.753906 8.375 -11.578125 8.375 -10.203125 C 8.375 -8.804688 8.847656 -7.613281 9.796875 -6.625 C 10.753906 -5.644531 11.894531 -5.15625 13.21875 -5.15625 C 13.851562 -5.15625 14.457031 -5.234375 15.03125 -5.390625 C 15.601562 -5.554688 16.019531 -5.71875 16.28125 -5.875 L 16.640625 -6.109375 L 19.03125 -1.234375 C 18.84375 -1.097656 18.582031 -0.929688 18.25 -0.734375 C 17.914062 -0.535156 17.160156 -0.265625 15.984375 0.078125 C 14.804688 0.421875 13.539062 0.59375 12.1875 0.59375 C 9.195312 0.59375 6.566406 -0.457031 4.296875 -2.5625 C 2.035156 -4.664062 0.90625 -7.1875 0.90625 -10.125 C 0.90625 -13.09375 2.035156 -15.640625 4.296875 -17.765625 C 6.566406 -19.898438 9.195312 -20.96875 12.1875 -20.96875 C 13.539062 -20.96875 14.785156 -20.804688 15.921875 -20.484375 C 17.066406 -20.171875 17.875 -19.859375 18.34375 -19.546875 L 19.03125 -19.0625 L 16.640625 -14.265625 C 15.765625 -14.898438 14.625 -15.21875 13.21875 -15.21875 Z M 13.21875 -15.21875 "/></g></g></g></svg>