<svg xmlns="http://www.w3.org/2000/svg" xmlns:xlink="http://www.w3.org/1999/xlink" width="200" zoomAndPan="magnify" viewBox="0 0 150 67.499998" height="90" preserveAspectRatio="xMidYMid meet" version="1.0"><defs><g/><clipPath id="f7e17a3634"><path d="M 3 12.769531 L 43.652344 12.769531 L 43.652344 53 L 3 53 Z M 3 12.769531 " clip-rule="nonzero"/></clipPath></defs><g clip-path="url(#f7e17a3634)"><path fill="#ff4b00" d="M 23.195312 12.765625 C 12.0625 12.765625 3.039062 21.746094 3.039062 32.816406 C 3.039062 43.894531 12.0625 52.871094 23.195312 52.871094 C 34.324219 52.871094 43.351562 43.894531 43.351562 32.816406 C 43.351562 21.746094 34.324219 12.765625 23.195312 12.765625 Z M 23.195312 49.6875 C 13.828125 49.6875 6.234375 42.136719 6.234375 32.816406 C 6.234375 23.5 13.828125 15.949219 23.195312 15.949219 C 32.5625 15.949219 40.152344 23.5 40.152344 32.816406 C 40.152344 42.136719 32.5625 49.6875 23.195312 49.6875 Z M 23.195312 49.6875 " fill-opacity="1" fill-rule="nonzero"/></g><path fill="#ff4b00" d="M 35.824219 33.3125 L 35.835938 33.300781 C 36.097656 33.027344 36.101562 32.597656 35.832031 32.335938 L 25.9375 22.492188 C 25.804688 22.359375 25.628906 22.292969 25.457031 22.292969 C 25.277344 22.292969 25.101562 22.359375 24.96875 22.492188 L 24.957031 22.507812 C 24.828125 22.636719 24.757812 22.808594 24.757812 22.988281 L 24.757812 25.710938 C 24.757812 25.894531 24.828125 26.066406 24.957031 26.195312 L 31.613281 32.816406 L 24.957031 39.441406 C 24.828125 39.570312 24.757812 39.742188 24.757812 39.925781 L 24.757812 42.648438 C 24.757812 42.828125 24.828125 43.003906 24.957031 43.128906 L 24.96875 43.144531 C 25.097656 43.269531 25.273438 43.34375 25.457031 43.34375 C 25.636719 43.34375 25.808594 43.269531 25.9375 43.144531 Z M 35.824219 33.3125 " fill-opacity="1" fill-rule="nonzero"/><path fill="#ff4b00" d="M 10.804688 33.3125 L 10.796875 33.300781 C 10.53125 33.027344 10.53125 32.597656 10.796875 32.335938 L 20.6875 22.492188 C 20.824219 22.359375 21 22.292969 21.175781 22.292969 C 21.351562 22.292969 21.527344 22.359375 21.660156 22.492188 L 21.671875 22.507812 C 21.800781 22.636719 21.875 22.808594 21.875 22.988281 L 21.875 25.710938 C 21.875 25.894531 21.800781 26.066406 21.671875 26.195312 L 15.015625 32.816406 L 21.671875 39.441406 C 21.800781 39.570312 21.875 39.742188 21.875 39.925781 L 21.875 42.648438 C 21.875 42.828125 21.800781 43.003906 21.671875 43.128906 L 21.660156 43.144531 C 21.53125 43.269531 21.359375 43.34375 21.175781 43.34375 C 20.992188 43.34375 20.820312 43.269531 20.6875 43.144531 Z M 10.804688 33.3125 " fill-opacity="1" fill-rule="nonzero"/><g fill="#ff4b00" fill-opacity="1"><g transform="translate(47.68784, 31.494898)"><g><path d="M 6.546875 -12.203125 C 7.222656 -12.203125 7.890625 -12.125 8.546875 -11.96875 C 9.210938 -11.820312 9.707031 -11.671875 10.03125 -11.515625 L 10.515625 -11.28125 L 9.1875 -8.609375 C 8.257812 -9.097656 7.378906 -9.34375 6.546875 -9.34375 C 6.078125 -9.34375 5.742188 -9.289062 5.546875 -9.1875 C 5.359375 -9.09375 5.265625 -8.90625 5.265625 -8.625 C 5.265625 -8.5625 5.269531 -8.5 5.28125 -8.4375 C 5.300781 -8.375 5.332031 -8.316406 5.375 -8.265625 C 5.425781 -8.210938 5.472656 -8.164062 5.515625 -8.125 C 5.554688 -8.09375 5.617188 -8.050781 5.703125 -8 C 5.796875 -7.957031 5.867188 -7.921875 5.921875 -7.890625 C 5.984375 -7.867188 6.070312 -7.832031 6.1875 -7.78125 C 6.3125 -7.738281 6.40625 -7.707031 6.46875 -7.6875 C 6.53125 -7.664062 6.632812 -7.628906 6.78125 -7.578125 C 6.925781 -7.535156 7.039062 -7.507812 7.125 -7.5 C 7.601562 -7.351562 8.019531 -7.195312 8.375 -7.03125 C 8.726562 -6.863281 9.097656 -6.628906 9.484375 -6.328125 C 9.878906 -6.035156 10.1875 -5.664062 10.40625 -5.21875 C 10.625 -4.78125 10.734375 -4.273438 10.734375 -3.703125 C 10.734375 -1.003906 8.859375 0.34375 5.109375 0.34375 C 4.265625 0.34375 3.457031 0.210938 2.6875 -0.046875 C 1.925781 -0.304688 1.378906 -0.566406 1.046875 -0.828125 L 0.53125 -1.25 L 2.203125 -4.046875 C 2.316406 -3.941406 2.472656 -3.816406 2.671875 -3.671875 C 2.878906 -3.523438 3.242188 -3.320312 3.765625 -3.0625 C 4.296875 -2.8125 4.753906 -2.6875 5.140625 -2.6875 C 5.984375 -2.6875 6.40625 -2.96875 6.40625 -3.53125 C 6.40625 -3.800781 6.296875 -4.007812 6.078125 -4.15625 C 5.867188 -4.300781 5.503906 -4.460938 4.984375 -4.640625 C 4.460938 -4.828125 4.054688 -5 3.765625 -5.15625 C 3.023438 -5.539062 2.4375 -5.972656 2 -6.453125 C 1.570312 -6.941406 1.359375 -7.585938 1.359375 -8.390625 C 1.359375 -9.597656 1.820312 -10.535156 2.75 -11.203125 C 3.6875 -11.867188 4.953125 -12.203125 6.546875 -12.203125 Z M 6.546875 -12.203125 "/></g></g></g><g fill="#ff4b00" fill-opacity="1"><g transform="translate(59.062195, 31.494898)"><g><path d="M 1.78125 -18.46875 C 2.257812 -18.945312 2.828125 -19.1875 3.484375 -19.1875 C 4.148438 -19.1875 4.722656 -18.945312 5.203125 -18.46875 C 5.679688 -18 5.921875 -17.429688 5.921875 -16.765625 C 5.921875 -16.097656 5.679688 -15.523438 5.203125 -15.046875 C 4.722656 -14.578125 4.148438 -14.34375 3.484375 -14.34375 C 2.828125 -14.34375 2.257812 -14.578125 1.78125 -15.046875 C 1.300781 -15.523438 1.0625 -16.097656 1.0625 -16.765625 C 1.0625 -17.429688 1.300781 -18 1.78125 -18.46875 Z M 1.390625 -11.859375 L 1.390625 0 L 5.484375 0 L 5.484375 -11.859375 Z M 1.390625 -11.859375 "/></g></g></g><g fill="#ff4b00" fill-opacity="1"><g transform="translate(66.044018, 31.494898)"><g><path d="M 1.390625 0 L 1.390625 -19.890625 L 5.484375 -19.890625 L 5.484375 0 Z M 1.390625 0 "/></g></g></g><g fill="#ff4b00" fill-opacity="1"><g transform="translate(72.910243, 31.494898)"><g><path d="M 4.390625 -11.859375 L 7.28125 -5.40625 L 10.171875 -11.859375 L 15.03125 -11.859375 L 8.671875 0 L 5.890625 0 L -0.46875 -11.859375 Z M 4.390625 -11.859375 "/></g></g></g><g fill="#ff4b00" fill-opacity="1"><g transform="translate(87.474966, 31.494898)"><g><path d="M 1.78125 -18.46875 C 2.257812 -18.945312 2.828125 -19.1875 3.484375 -19.1875 C 4.148438 -19.1875 4.722656 -18.945312 5.203125 -18.46875 C 5.679688 -18 5.921875 -17.429688 5.921875 -16.765625 C 5.921875 -16.097656 5.679688 -15.523438 5.203125 -15.046875 C 4.722656 -14.578125 4.148438 -14.34375 3.484375 -14.34375 C 2.828125 -14.34375 2.257812 -14.578125 1.78125 -15.046875 C 1.300781 -15.523438 1.0625 -16.097656 1.0625 -16.765625 C 1.0625 -17.429688 1.300781 -18 1.78125 -18.46875 Z M 1.390625 -11.859375 L 1.390625 0 L 5.484375 0 L 5.484375 -11.859375 Z M 1.390625 -11.859375 "/></g></g></g><g fill="#ff4b00" fill-opacity="1"><g transform="translate(94.456789, 31.494898)"><g><path d="M 5.25 -11.859375 L 5.25 -6.21875 C 5.25 -5.050781 5.425781 -4.21875 5.78125 -3.71875 C 6.132812 -3.226562 6.734375 -2.984375 7.578125 -2.984375 C 8.429688 -2.984375 9.035156 -3.226562 9.390625 -3.71875 C 9.742188 -4.21875 9.921875 -5.050781 9.921875 -6.21875 L 9.921875 -11.859375 L 14.015625 -11.859375 L 14.015625 -5.21875 C 14.015625 -3.25 13.5 -1.828125 12.46875 -0.953125 C 11.445312 -0.0859375 9.816406 0.34375 7.578125 0.34375 C 5.347656 0.34375 3.71875 -0.0859375 2.6875 -0.953125 C 1.664062 -1.828125 1.15625 -3.25 1.15625 -5.21875 L 1.15625 -11.859375 Z M 5.25 -11.859375 "/></g></g></g><g fill="#ffffff" fill-opacity="1"><g transform="translate(47.68784, 52.950452)"><g><path d="M 6.5625 0.234375 C 5.375 0.234375 4.347656 -0.0195312 3.484375 -0.53125 C 2.628906 -1.039062 1.972656 -1.75 1.515625 -2.65625 C 1.054688 -3.5625 0.828125 -4.609375 0.828125 -5.796875 C 0.828125 -6.992188 1.054688 -8.039062 1.515625 -8.9375 C 1.984375 -9.84375 2.644531 -10.550781 3.5 -11.0625 C 4.351562 -11.570312 5.367188 -11.828125 6.546875 -11.828125 C 7.566406 -11.828125 8.460938 -11.640625 9.234375 -11.265625 C 10.003906 -10.898438 10.609375 -10.382812 11.046875 -9.71875 C 11.492188 -9.050781 11.738281 -8.265625 11.78125 -7.359375 L 8.734375 -7.359375 C 8.640625 -7.941406 8.410156 -8.410156 8.046875 -8.765625 C 7.679688 -9.117188 7.203125 -9.296875 6.609375 -9.296875 C 5.859375 -9.296875 5.253906 -8.992188 4.796875 -8.390625 C 4.335938 -7.796875 4.109375 -6.945312 4.109375 -5.84375 C 4.109375 -4.726562 4.332031 -3.863281 4.78125 -3.25 C 5.238281 -2.632812 5.847656 -2.328125 6.609375 -2.328125 C 7.160156 -2.328125 7.625 -2.492188 8 -2.828125 C 8.382812 -3.171875 8.628906 -3.65625 8.734375 -4.28125 L 11.78125 -4.28125 C 11.726562 -3.382812 11.484375 -2.597656 11.046875 -1.921875 C 10.617188 -1.242188 10.023438 -0.710938 9.265625 -0.328125 C 8.503906 0.046875 7.601562 0.234375 6.5625 0.234375 Z M 6.5625 0.234375 "/></g></g></g><g fill="#ffffff" fill-opacity="1"><g transform="translate(60.258998, 52.950452)"><g><path d="M 6.5625 0.234375 C 5.382812 0.234375 4.363281 -0.015625 3.5 -0.515625 C 2.644531 -1.023438 1.984375 -1.734375 1.515625 -2.640625 C 1.054688 -3.546875 0.828125 -4.597656 0.828125 -5.796875 C 0.828125 -7.003906 1.054688 -8.054688 1.515625 -8.953125 C 1.984375 -9.859375 2.644531 -10.5625 3.5 -11.0625 C 4.363281 -11.570312 5.382812 -11.828125 6.5625 -11.828125 C 7.75 -11.828125 8.769531 -11.570312 9.625 -11.0625 C 10.488281 -10.5625 11.148438 -9.859375 11.609375 -8.953125 C 12.078125 -8.054688 12.3125 -7.003906 12.3125 -5.796875 C 12.3125 -4.597656 12.078125 -3.546875 11.609375 -2.640625 C 11.148438 -1.734375 10.488281 -1.023438 9.625 -0.515625 C 8.769531 -0.015625 7.75 0.234375 6.5625 0.234375 Z M 6.578125 -2.28125 C 7.378906 -2.28125 7.984375 -2.613281 8.390625 -3.28125 C 8.804688 -3.945312 9.015625 -4.789062 9.015625 -5.8125 C 9.015625 -6.832031 8.804688 -7.675781 8.390625 -8.34375 C 7.984375 -9.019531 7.378906 -9.359375 6.578125 -9.359375 C 5.765625 -9.359375 5.148438 -9.019531 4.734375 -8.34375 C 4.316406 -7.675781 4.109375 -6.832031 4.109375 -5.8125 C 4.109375 -4.789062 4.316406 -3.945312 4.734375 -3.28125 C 5.148438 -2.613281 5.765625 -2.28125 6.578125 -2.28125 Z M 6.578125 -2.28125 "/></g></g></g><g fill="#ffffff" fill-opacity="1"><g transform="translate(73.392586, 52.950452)"><g><path d="M 11 -8.34375 L 8.046875 -8.171875 C 7.960938 -8.546875 7.753906 -8.863281 7.421875 -9.125 C 7.097656 -9.394531 6.65625 -9.53125 6.09375 -9.53125 C 5.59375 -9.53125 5.164062 -9.425781 4.8125 -9.21875 C 4.46875 -9.007812 4.296875 -8.726562 4.296875 -8.375 C 4.296875 -8.09375 4.40625 -7.851562 4.625 -7.65625 C 4.851562 -7.46875 5.238281 -7.316406 5.78125 -7.203125 L 7.890625 -6.78125 C 10.140625 -6.320312 11.265625 -5.269531 11.265625 -3.625 C 11.265625 -2.851562 11.039062 -2.175781 10.59375 -1.59375 C 10.144531 -1.019531 9.53125 -0.570312 8.75 -0.25 C 7.976562 0.0703125 7.085938 0.234375 6.078125 0.234375 C 4.523438 0.234375 3.289062 -0.0859375 2.375 -0.734375 C 1.457031 -1.378906 0.925781 -2.257812 0.78125 -3.375 L 3.953125 -3.546875 C 4.054688 -3.066406 4.289062 -2.707031 4.65625 -2.46875 C 5.03125 -2.226562 5.503906 -2.109375 6.078125 -2.109375 C 6.648438 -2.109375 7.109375 -2.21875 7.453125 -2.4375 C 7.796875 -2.664062 7.972656 -2.953125 7.984375 -3.296875 C 7.960938 -3.867188 7.460938 -4.253906 6.484375 -4.453125 L 4.46875 -4.859375 C 2.207031 -5.304688 1.082031 -6.414062 1.09375 -8.1875 C 1.082031 -9.3125 1.53125 -10.195312 2.4375 -10.84375 C 3.34375 -11.5 4.539062 -11.828125 6.03125 -11.828125 C 7.507812 -11.828125 8.671875 -11.515625 9.515625 -10.890625 C 10.367188 -10.265625 10.863281 -9.414062 11 -8.34375 Z M 11 -8.34375 "/></g></g></g><g fill="#ffffff" fill-opacity="1"><g transform="translate(85.416502, 52.950452)"><g><path d="M 7.5 -11.671875 L 7.5 -9.25 L 5.3125 -9.25 L 5.3125 -3.59375 C 5.3125 -3.144531 5.410156 -2.84375 5.609375 -2.6875 C 5.816406 -2.53125 6.082031 -2.453125 6.40625 -2.453125 C 6.550781 -2.453125 6.695312 -2.460938 6.84375 -2.484375 C 7 -2.515625 7.117188 -2.535156 7.203125 -2.546875 L 7.71875 -0.140625 C 7.550781 -0.0859375 7.320312 -0.03125 7.03125 0.03125 C 6.738281 0.101562 6.378906 0.144531 5.953125 0.15625 C 4.785156 0.207031 3.84375 -0.0390625 3.125 -0.59375 C 2.414062 -1.15625 2.0625 -2.007812 2.0625 -3.15625 L 2.0625 -9.25 L 0.46875 -9.25 L 0.46875 -11.671875 L 2.0625 -11.671875 L 2.0625 -14.46875 L 5.3125 -14.46875 L 5.3125 -11.671875 Z M 7.5 -11.671875 "/></g></g></g><g fill="#ffffff" fill-opacity="1"><g transform="translate(93.731402, 52.950452)"><g><path d="M 4.625 0.21875 C 3.507812 0.21875 2.582031 -0.0703125 1.84375 -0.65625 C 1.113281 -1.238281 0.75 -2.109375 0.75 -3.265625 C 0.75 -4.128906 0.953125 -4.8125 1.359375 -5.3125 C 1.765625 -5.8125 2.300781 -6.175781 2.96875 -6.40625 C 3.632812 -6.632812 4.351562 -6.785156 5.125 -6.859375 C 6.144531 -6.960938 6.867188 -7.066406 7.296875 -7.171875 C 7.734375 -7.285156 7.953125 -7.53125 7.953125 -7.90625 L 7.953125 -7.953125 C 7.953125 -8.429688 7.800781 -8.800781 7.5 -9.0625 C 7.195312 -9.332031 6.769531 -9.46875 6.21875 -9.46875 C 5.644531 -9.46875 5.179688 -9.335938 4.828125 -9.078125 C 4.484375 -8.828125 4.257812 -8.507812 4.15625 -8.125 L 1.15625 -8.359375 C 1.375 -9.421875 1.925781 -10.265625 2.8125 -10.890625 C 3.695312 -11.515625 4.835938 -11.828125 6.234375 -11.828125 C 7.109375 -11.828125 7.921875 -11.6875 8.671875 -11.40625 C 9.429688 -11.132812 10.039062 -10.707031 10.5 -10.125 C 10.96875 -9.550781 11.203125 -8.800781 11.203125 -7.875 L 11.203125 0 L 8.125 0 L 8.125 -1.625 L 8.03125 -1.625 C 7.75 -1.082031 7.328125 -0.640625 6.765625 -0.296875 C 6.203125 0.046875 5.488281 0.21875 4.625 0.21875 Z M 5.546875 -2.015625 C 6.253906 -2.015625 6.835938 -2.21875 7.296875 -2.625 C 7.753906 -3.039062 7.984375 -3.554688 7.984375 -4.171875 L 7.984375 -5.40625 C 7.859375 -5.320312 7.660156 -5.242188 7.390625 -5.171875 C 7.128906 -5.109375 6.847656 -5.050781 6.546875 -5 C 6.242188 -4.957031 5.972656 -4.921875 5.734375 -4.890625 C 5.160156 -4.804688 4.703125 -4.644531 4.359375 -4.40625 C 4.015625 -4.164062 3.84375 -3.820312 3.84375 -3.375 C 3.84375 -2.925781 4 -2.585938 4.3125 -2.359375 C 4.632812 -2.128906 5.046875 -2.015625 5.546875 -2.015625 Z M 5.546875 -2.015625 "/></g></g></g><g fill="#ffffff" fill-opacity="1"><g transform="translate(106.150549, 52.950452)"><g><path d="M 6.5625 0.234375 C 5.375 0.234375 4.347656 -0.0195312 3.484375 -0.53125 C 2.628906 -1.039062 1.972656 -1.75 1.515625 -2.65625 C 1.054688 -3.5625 0.828125 -4.609375 0.828125 -5.796875 C 0.828125 -6.992188 1.054688 -8.039062 1.515625 -8.9375 C 1.984375 -9.84375 2.644531 -10.550781 3.5 -11.0625 C 4.351562 -11.570312 5.367188 -11.828125 6.546875 -11.828125 C 7.566406 -11.828125 8.460938 -11.640625 9.234375 -11.265625 C 10.003906 -10.898438 10.609375 -10.382812 11.046875 -9.71875 C 11.492188 -9.050781 11.738281 -8.265625 11.78125 -7.359375 L 8.734375 -7.359375 C 8.640625 -7.941406 8.410156 -8.410156 8.046875 -8.765625 C 7.679688 -9.117188 7.203125 -9.296875 6.609375 -9.296875 C 5.859375 -9.296875 5.253906 -8.992188 4.796875 -8.390625 C 4.335938 -7.796875 4.109375 -6.945312 4.109375 -5.84375 C 4.109375 -4.726562 4.332031 -3.863281 4.78125 -3.25 C 5.238281 -2.632812 5.847656 -2.328125 6.609375 -2.328125 C 7.160156 -2.328125 7.625 -2.492188 8 -2.828125 C 8.382812 -3.171875 8.628906 -3.65625 8.734375 -4.28125 L 11.78125 -4.28125 C 11.726562 -3.382812 11.484375 -2.597656 11.046875 -1.921875 C 10.617188 -1.242188 10.023438 -0.710938 9.265625 -0.328125 C 8.503906 0.046875 7.601562 0.234375 6.5625 0.234375 Z M 6.5625 0.234375 "/></g></g></g><g fill="#ffffff" fill-opacity="1"><g transform="translate(118.721706, 52.950452)"><g><path d="M 4.53125 -6.75 L 4.53125 0 L 1.296875 0 L 1.296875 -15.5625 L 4.4375 -15.5625 L 4.4375 -9.609375 L 4.578125 -9.609375 C 4.847656 -10.304688 5.273438 -10.847656 5.859375 -11.234375 C 6.441406 -11.628906 7.175781 -11.828125 8.0625 -11.828125 C 9.28125 -11.828125 10.257812 -11.4375 11 -10.65625 C 11.738281 -9.875 12.109375 -8.800781 12.109375 -7.4375 L 12.109375 0 L 8.859375 0 L 8.859375 -6.859375 C 8.867188 -7.578125 8.6875 -8.132812 8.3125 -8.53125 C 7.945312 -8.9375 7.4375 -9.140625 6.78125 -9.140625 C 6.125 -9.140625 5.582031 -8.929688 5.15625 -8.515625 C 4.738281 -8.097656 4.53125 -7.507812 4.53125 -6.75 Z M 4.53125 -6.75 "/></g></g></g><g fill="#ffffff" fill-opacity="1"><g transform="translate(132.083306, 52.950452)"><g><path d="M 6.609375 0.234375 C 5.410156 0.234375 4.378906 -0.0078125 3.515625 -0.5 C 2.648438 -0.988281 1.984375 -1.679688 1.515625 -2.578125 C 1.054688 -3.484375 0.828125 -4.550781 0.828125 -5.78125 C 0.828125 -6.988281 1.054688 -8.046875 1.515625 -8.953125 C 1.984375 -9.859375 2.640625 -10.5625 3.484375 -11.0625 C 4.335938 -11.570312 5.335938 -11.828125 6.484375 -11.828125 C 7.515625 -11.828125 8.441406 -11.609375 9.265625 -11.171875 C 10.097656 -10.734375 10.753906 -10.078125 11.234375 -9.203125 C 11.722656 -8.328125 11.96875 -7.226562 11.96875 -5.90625 L 11.96875 -5.015625 L 4.015625 -5.015625 L 4.015625 -5 C 4.015625 -4.125 4.253906 -3.4375 4.734375 -2.9375 C 5.210938 -2.4375 5.859375 -2.1875 6.671875 -2.1875 C 7.210938 -2.1875 7.679688 -2.300781 8.078125 -2.53125 C 8.472656 -2.757812 8.75 -3.097656 8.90625 -3.546875 L 11.90625 -3.34375 C 11.675781 -2.257812 11.097656 -1.390625 10.171875 -0.734375 C 9.242188 -0.0859375 8.054688 0.234375 6.609375 0.234375 Z M 4.015625 -7.015625 L 8.921875 -7.015625 C 8.921875 -7.710938 8.695312 -8.285156 8.25 -8.734375 C 7.8125 -9.179688 7.238281 -9.40625 6.53125 -9.40625 C 5.8125 -9.40625 5.222656 -9.171875 4.765625 -8.703125 C 4.304688 -8.242188 4.054688 -7.679688 4.015625 -7.015625 Z M 4.015625 -7.015625 "/></g></g></g></svg>