<svg xmlns="http://www.w3.org/2000/svg" xmlns:xlink="http://www.w3.org/1999/xlink" width="200" zoomAndPan="magnify" viewBox="0 0 150 67.499998" height="90" preserveAspectRatio="xMidYMid meet" version="1.0"><defs><g/><clipPath id="14d28b4693"><path d="M 3 12.769531 L 43.652344 12.769531 L 43.652344 53 L 3 53 Z M 3 12.769531 " clip-rule="nonzero"/></clipPath></defs><g clip-path="url(#14d28b4693)"><path fill="#ff4b00" d="M 23.195312 12.765625 C 12.0625 12.765625 3.039062 21.746094 3.039062 32.816406 C 3.039062 43.894531 12.0625 52.871094 23.195312 52.871094 C 34.324219 52.871094 43.351562 43.894531 43.351562 32.816406 C 43.351562 21.746094 34.324219 12.765625 23.195312 12.765625 Z M 23.195312 49.6875 C 13.828125 49.6875 6.234375 42.136719 6.234375 32.816406 C 6.234375 23.5 13.828125 15.949219 23.195312 15.949219 C 32.5625 15.949219 40.152344 23.5 40.152344 32.816406 C 40.152344 42.136719 32.5625 49.6875 23.195312 49.6875 Z M 23.195312 49.6875 " fill-opacity="1" fill-rule="nonzero"/></g><path fill="#ff4b00" d="M 35.824219 33.3125 L 35.835938 33.300781 C 36.097656 33.027344 36.101562 32.597656 35.832031 32.335938 L 25.9375 22.492188 C 25.804688 22.359375 25.628906 22.292969 25.457031 22.292969 C 25.277344 22.292969 25.101562 22.359375 24.96875 22.492188 L 24.957031 22.507812 C 24.828125 22.636719 24.757812 22.808594 24.757812 22.988281 L 24.757812 25.710938 C 24.757812 25.894531 24.828125 26.066406 24.957031 26.195312 L 31.613281 32.816406 L 24.957031 39.441406 C 24.828125 39.570312 24.757812 39.742188 24.757812 39.925781 L 24.757812 42.648438 C 24.757812 42.828125 24.828125 43.003906 24.957031 43.128906 L 24.96875 43.144531 C 25.097656 43.269531 25.273438 43.34375 25.457031 43.34375 C 25.636719 43.34375 25.808594 43.269531 25.9375 43.144531 Z M 35.824219 33.3125 " fill-opacity="1" fill-rule="nonzero"/><path fill="#ff4b00" d="M 10.804688 33.3125 L 10.796875 33.300781 C 10.53125 33.027344 10.53125 32.597656 10.796875 32.335938 L 20.6875 22.492188 C 20.824219 22.359375 21 22.292969 21.175781 22.292969 C 21.351562 22.292969 21.527344 22.359375 21.660156 22.492188 L 21.671875 22.507812 C 21.800781 22.636719 21.875 22.808594 21.875 22.988281 L 21.875 25.710938 C 21.875 25.894531 21.800781 26.066406 21.671875 26.195312 L 15.015625 32.816406 L 21.671875 39.441406 C 21.800781 39.570312 21.875 39.742188 21.875 39.925781 L 21.875 42.648438 C 21.875 42.828125 21.800781 43.003906 21.671875 43.128906 L 21.660156 43.144531 C 21.53125 43.269531 21.359375 43.34375 21.175781 43.34375 C 20.992188 43.34375 20.820312 43.269531 20.6875 43.144531 Z M 10.804688 33.3125 " fill-opacity="1" fill-rule="nonzero"/><g fill="#ff4b00" fill-opacity="1"><g transform="translate(47.68784, 31.494898)"><g><path d="M 6.546875 -12.203125 C 7.222656 -12.203125 7.890625 -12.125 8.546875 -11.96875 C 9.210938 -11.820312 9.707031 -11.671875 10.03125 -11.515625 L 10.515625 -11.28125 L 9.1875 -8.609375 C 8.257812 -9.097656 7.378906 -9.34375 6.546875 -9.34375 C 6.078125 -9.34375 5.742188 -9.289062 5.546875 -9.1875 C 5.359375 -9.09375 5.265625 -8.90625 5.265625 -8.625 C 5.265625 -8.5625 5.269531 -8.5 5.28125 -8.4375 C 5.300781 -8.375 5.332031 -8.316406 5.375 -8.265625 C 5.425781 -8.210938 5.472656 -8.164062 5.515625 -8.125 C 5.554688 -8.09375 5.617188 -8.050781 5.703125 -8 C 5.796875 -7.957031 5.867188 -7.921875 5.921875 -7.890625 C 5.984375 -7.867188 6.070312 -7.832031 6.1875 -7.78125 C 6.3125 -7.738281 6.40625 -7.707031 6.46875 -7.6875 C 6.53125 -7.664062 6.632812 -7.628906 6.78125 -7.578125 C 6.925781 -7.535156 7.039062 -7.507812 7.125 -7.5 C 7.601562 -7.351562 8.019531 -7.195312 8.375 -7.03125 C 8.726562 -6.863281 9.097656 -6.628906 9.484375 -6.328125 C 9.878906 -6.035156 10.1875 -5.664062 10.40625 -5.21875 C 10.625 -4.78125 10.734375 -4.273438 10.734375 -3.703125 C 10.734375 -1.003906 8.859375 0.34375 5.109375 0.34375 C 4.265625 0.34375 3.457031 0.210938 2.6875 -0.046875 C 1.925781 -0.304688 1.378906 -0.566406 1.046875 -0.828125 L 0.53125 -1.25 L 2.203125 -4.046875 C 2.316406 -3.941406 2.472656 -3.816406 2.671875 -3.671875 C 2.878906 -3.523438 3.242188 -3.320312 3.765625 -3.0625 C 4.296875 -2.8125 4.753906 -2.6875 5.140625 -2.6875 C 5.984375 -2.6875 6.40625 -2.96875 6.40625 -3.53125 C 6.40625 -3.800781 6.296875 -4.007812 6.078125 -4.15625 C 5.867188 -4.300781 5.503906 -4.460938 4.984375 -4.640625 C 4.460938 -4.828125 4.054688 -5 3.765625 -5.15625 C 3.023438 -5.539062 2.4375 -5.972656 2 -6.453125 C 1.570312 -6.941406 1.359375 -7.585938 1.359375 -8.390625 C 1.359375 -9.597656 1.820312 -10.535156 2.75 -11.203125 C 3.6875 -11.867188 4.953125 -12.203125 6.546875 -12.203125 Z M 6.546875 -12.203125 "/></g></g></g><g fill="#ff4b00" fill-opacity="1"><g transform="translate(59.062195, 31.494898)"><g><path d="M 1.78125 -18.46875 C 2.257812 -18.945312 2.828125 -19.1875 3.484375 -19.1875 C 4.148438 -19.1875 4.722656 -18.945312 5.203125 -18.46875 C 5.679688 -18 5.921875 -17.429688 5.921875 -16.765625 C 5.921875 -16.097656 5.679688 -15.523438 5.203125 -15.046875 C 4.722656 -14.578125 4.148438 -14.34375 3.484375 -14.34375 C 2.828125 -14.34375 2.257812 -14.578125 1.78125 -15.046875 C 1.300781 -15.523438 1.0625 -16.097656 1.0625 -16.765625 C 1.0625 -17.429688 1.300781 -18 1.78125 -18.46875 Z M 1.390625 -11.859375 L 1.390625 0 L 5.484375 0 L 5.484375 -11.859375 Z M 1.390625 -11.859375 "/></g></g></g><g fill="#ff4b00" fill-opacity="1"><g transform="translate(66.044018, 31.494898)"><g><path d="M 1.390625 0 L 1.390625 -19.890625 L 5.484375 -19.890625 L 5.484375 0 Z M 1.390625 0 "/></g></g></g><g fill="#ff4b00" fill-opacity="1"><g transform="translate(72.910243, 31.494898)"><g><path d="M 4.390625 -11.859375 L 7.28125 -5.40625 L 10.171875 -11.859375 L 15.03125 -11.859375 L 8.671875 0 L 5.890625 0 L -0.46875 -11.859375 Z M 4.390625 -11.859375 "/></g></g></g><g fill="#ff4b00" fill-opacity="1"><g transform="translate(87.474966, 31.494898)"><g><path d="M 1.78125 -18.46875 C 2.257812 -18.945312 2.828125 -19.1875 3.484375 -19.1875 C 4.148438 -19.1875 4.722656 -18.945312 5.203125 -18.46875 C 5.679688 -18 5.921875 -17.429688 5.921875 -16.765625 C 5.921875 -16.097656 5.679688 -15.523438 5.203125 -15.046875 C 4.722656 -14.578125 4.148438 -14.34375 3.484375 -14.34375 C 2.828125 -14.34375 2.257812 -14.578125 1.78125 -15.046875 C 1.300781 -15.523438 1.0625 -16.097656 1.0625 -16.765625 C 1.0625 -17.429688 1.300781 -18 1.78125 -18.46875 Z M 1.390625 -11.859375 L 1.390625 0 L 5.484375 0 L 5.484375 -11.859375 Z M 1.390625 -11.859375 "/></g></g></g><g fill="#ff4b00" fill-opacity="1"><g transform="translate(94.456789, 31.494898)"><g><path d="M 5.25 -11.859375 L 5.25 -6.21875 C 5.25 -5.050781 5.425781 -4.21875 5.78125 -3.71875 C 6.132812 -3.226562 6.734375 -2.984375 7.578125 -2.984375 C 8.429688 -2.984375 9.035156 -3.226562 9.390625 -3.71875 C 9.742188 -4.21875 9.921875 -5.050781 9.921875 -6.21875 L 9.921875 -11.859375 L 14.015625 -11.859375 L 14.015625 -5.21875 C 14.015625 -3.25 13.5 -1.828125 12.46875 -0.953125 C 11.445312 -0.0859375 9.816406 0.34375 7.578125 0.34375 C 5.347656 0.34375 3.71875 -0.0859375 2.6875 -0.953125 C 1.664062 -1.828125 1.15625 -3.25 1.15625 -5.21875 L 1.15625 -11.859375 Z M 5.25 -11.859375 "/></g></g></g><g fill="#ffffff" fill-opacity="1"><g transform="translate(47.68784, 50.603504)"><g><path d="M 7.125 -8.203125 C 6.414062 -8.203125 5.800781 -7.9375 5.28125 -7.40625 C 4.769531 -6.875 4.515625 -6.238281 4.515625 -5.5 C 4.515625 -4.738281 4.769531 -4.09375 5.28125 -3.5625 C 5.800781 -3.039062 6.414062 -2.78125 7.125 -2.78125 C 7.46875 -2.78125 7.789062 -2.820312 8.09375 -2.90625 C 8.40625 -3 8.632812 -3.085938 8.78125 -3.171875 L 8.96875 -3.296875 L 10.25 -0.65625 C 10.15625 -0.59375 10.015625 -0.503906 9.828125 -0.390625 C 9.648438 -0.285156 9.242188 -0.140625 8.609375 0.046875 C 7.972656 0.234375 7.296875 0.328125 6.578125 0.328125 C 4.960938 0.328125 3.546875 -0.238281 2.328125 -1.375 C 1.109375 -2.507812 0.5 -3.867188 0.5 -5.453125 C 0.5 -7.054688 1.109375 -8.429688 2.328125 -9.578125 C 3.546875 -10.722656 4.960938 -11.296875 6.578125 -11.296875 C 7.296875 -11.296875 7.960938 -11.207031 8.578125 -11.03125 C 9.191406 -10.863281 9.628906 -10.695312 9.890625 -10.53125 L 10.25 -10.28125 L 8.96875 -7.6875 C 8.5 -8.03125 7.882812 -8.203125 7.125 -8.203125 Z M 7.125 -8.203125 "/></g></g></g><g fill="#ffffff" fill-opacity="1"><g transform="translate(58.197161, 50.603504)"><g><path d="M 2.328125 -1.296875 C 1.109375 -2.390625 0.5 -3.785156 0.5 -5.484375 C 0.5 -7.179688 1.128906 -8.570312 2.390625 -9.65625 C 3.660156 -10.75 5.234375 -11.296875 7.109375 -11.296875 C 8.953125 -11.296875 10.503906 -10.742188 11.765625 -9.640625 C 13.023438 -8.546875 13.65625 -7.15625 13.65625 -5.46875 C 13.65625 -3.789062 13.035156 -2.40625 11.796875 -1.3125 C 10.566406 -0.21875 9.003906 0.328125 7.109375 0.328125 C 5.140625 0.328125 3.546875 -0.210938 2.328125 -1.296875 Z M 5.25 -7.328125 C 4.757812 -6.847656 4.515625 -6.226562 4.515625 -5.46875 C 4.515625 -4.71875 4.75 -4.101562 5.21875 -3.625 C 5.6875 -3.144531 6.304688 -2.90625 7.078125 -2.90625 C 7.828125 -2.90625 8.4375 -3.144531 8.90625 -3.625 C 9.382812 -4.113281 9.625 -4.734375 9.625 -5.484375 C 9.625 -6.234375 9.378906 -6.847656 8.890625 -7.328125 C 8.398438 -7.816406 7.796875 -8.0625 7.078125 -8.0625 C 6.359375 -8.0625 5.75 -7.816406 5.25 -7.328125 Z M 5.25 -7.328125 "/></g></g></g><g fill="#ffffff" fill-opacity="1"><g transform="translate(72.345141, 50.603504)"><g><path d="M 6.0625 -11.296875 C 6.6875 -11.296875 7.304688 -11.222656 7.921875 -11.078125 C 8.535156 -10.941406 8.992188 -10.800781 9.296875 -10.65625 L 9.734375 -10.453125 L 8.5 -7.96875 C 7.644531 -8.414062 6.832031 -8.640625 6.0625 -8.640625 C 5.632812 -8.640625 5.328125 -8.59375 5.140625 -8.5 C 4.960938 -8.414062 4.875 -8.242188 4.875 -7.984375 C 4.875 -7.929688 4.878906 -7.875 4.890625 -7.8125 C 4.910156 -7.757812 4.941406 -7.707031 4.984375 -7.65625 C 5.023438 -7.601562 5.0625 -7.554688 5.09375 -7.515625 C 5.132812 -7.484375 5.195312 -7.445312 5.28125 -7.40625 C 5.375 -7.363281 5.441406 -7.332031 5.484375 -7.3125 C 5.535156 -7.289062 5.617188 -7.257812 5.734375 -7.21875 C 5.847656 -7.175781 5.929688 -7.140625 5.984375 -7.109375 C 6.046875 -7.085938 6.144531 -7.054688 6.28125 -7.015625 C 6.414062 -6.972656 6.519531 -6.945312 6.59375 -6.9375 C 7.03125 -6.8125 7.410156 -6.664062 7.734375 -6.5 C 8.066406 -6.34375 8.414062 -6.128906 8.78125 -5.859375 C 9.144531 -5.585938 9.425781 -5.242188 9.625 -4.828125 C 9.832031 -4.421875 9.9375 -3.953125 9.9375 -3.421875 C 9.9375 -0.921875 8.203125 0.328125 4.734375 0.328125 C 3.941406 0.328125 3.191406 0.207031 2.484375 -0.03125 C 1.785156 -0.28125 1.28125 -0.523438 0.96875 -0.765625 L 0.5 -1.15625 L 2.03125 -3.75 C 2.144531 -3.644531 2.296875 -3.523438 2.484375 -3.390625 C 2.671875 -3.253906 3.003906 -3.066406 3.484375 -2.828125 C 3.972656 -2.597656 4.394531 -2.484375 4.75 -2.484375 C 5.53125 -2.484375 5.921875 -2.75 5.921875 -3.28125 C 5.921875 -3.519531 5.820312 -3.707031 5.625 -3.84375 C 5.425781 -3.976562 5.085938 -4.128906 4.609375 -4.296875 C 4.128906 -4.472656 3.753906 -4.632812 3.484375 -4.78125 C 2.804688 -5.132812 2.265625 -5.535156 1.859375 -5.984375 C 1.460938 -6.429688 1.265625 -7.023438 1.265625 -7.765625 C 1.265625 -8.878906 1.695312 -9.742188 2.5625 -10.359375 C 3.425781 -10.984375 4.59375 -11.296875 6.0625 -11.296875 Z M 6.0625 -11.296875 "/></g></g></g><g fill="#ffffff" fill-opacity="1"><g transform="translate(82.875864, 50.603504)"><g><path d="M 1.921875 -10.984375 L 1.921875 -15.0625 L 5.71875 -15.0625 L 5.71875 -10.984375 L 8.03125 -10.984375 L 8.03125 -8.09375 L 5.71875 -8.09375 L 5.71875 -4.609375 C 5.71875 -3.585938 6.003906 -3.078125 6.578125 -3.078125 C 6.710938 -3.078125 6.859375 -3.101562 7.015625 -3.15625 C 7.171875 -3.21875 7.296875 -3.28125 7.390625 -3.34375 L 7.515625 -3.421875 L 8.453125 -0.359375 C 7.640625 0.0976562 6.710938 0.328125 5.671875 0.328125 C 4.960938 0.328125 4.347656 0.203125 3.828125 -0.046875 C 3.316406 -0.296875 2.925781 -0.628906 2.65625 -1.046875 C 2.394531 -1.472656 2.207031 -1.914062 2.09375 -2.375 C 1.976562 -2.84375 1.921875 -3.34375 1.921875 -3.875 L 1.921875 -8.09375 L 0.34375 -8.09375 L 0.34375 -10.984375 Z M 1.921875 -10.984375 "/></g></g></g><g fill="#ffffff" fill-opacity="1"><g transform="translate(91.33041, 50.603504)"><g><path d="M 2.03125 -1.359375 C 1.007812 -2.484375 0.5 -3.859375 0.5 -5.484375 C 0.5 -7.109375 1.007812 -8.484375 2.03125 -9.609375 C 3.0625 -10.734375 4.367188 -11.296875 5.953125 -11.296875 C 7.410156 -11.296875 8.609375 -10.84375 9.546875 -9.9375 L 9.546875 -10.984375 L 13.34375 -10.984375 L 13.34375 0 L 9.59375 0 L 9.59375 -1.234375 L 9.546875 -1.234375 C 8.609375 -0.191406 7.410156 0.328125 5.953125 0.328125 C 4.367188 0.328125 3.0625 -0.234375 2.03125 -1.359375 Z M 5.25 -7.328125 C 4.757812 -6.847656 4.515625 -6.226562 4.515625 -5.46875 C 4.515625 -4.71875 4.75 -4.101562 5.21875 -3.625 C 5.6875 -3.144531 6.304688 -2.90625 7.078125 -2.90625 C 7.828125 -2.90625 8.4375 -3.144531 8.90625 -3.625 C 9.382812 -4.113281 9.625 -4.734375 9.625 -5.484375 C 9.625 -6.234375 9.378906 -6.847656 8.890625 -7.328125 C 8.398438 -7.816406 7.796875 -8.0625 7.078125 -8.0625 C 6.359375 -8.0625 5.75 -7.816406 5.25 -7.328125 Z M 5.25 -7.328125 "/></g></g></g><g fill="#ffffff" fill-opacity="1"><g transform="translate(105.949282, 50.603504)"><g><path d="M 7.125 -8.203125 C 6.414062 -8.203125 5.800781 -7.9375 5.28125 -7.40625 C 4.769531 -6.875 4.515625 -6.238281 4.515625 -5.5 C 4.515625 -4.738281 4.769531 -4.09375 5.28125 -3.5625 C 5.800781 -3.039062 6.414062 -2.78125 7.125 -2.78125 C 7.46875 -2.78125 7.789062 -2.820312 8.09375 -2.90625 C 8.40625 -3 8.632812 -3.085938 8.78125 -3.171875 L 8.96875 -3.296875 L 10.25 -0.65625 C 10.15625 -0.59375 10.015625 -0.503906 9.828125 -0.390625 C 9.648438 -0.285156 9.242188 -0.140625 8.609375 0.046875 C 7.972656 0.234375 7.296875 0.328125 6.578125 0.328125 C 4.960938 0.328125 3.546875 -0.238281 2.328125 -1.375 C 1.109375 -2.507812 0.5 -3.867188 0.5 -5.453125 C 0.5 -7.054688 1.109375 -8.429688 2.328125 -9.578125 C 3.546875 -10.722656 4.960938 -11.296875 6.578125 -11.296875 C 7.296875 -11.296875 7.960938 -11.207031 8.578125 -11.03125 C 9.191406 -10.863281 9.628906 -10.695312 9.890625 -10.53125 L 10.25 -10.28125 L 8.96875 -7.6875 C 8.5 -8.03125 7.882812 -8.203125 7.125 -8.203125 Z M 7.125 -8.203125 "/></g></g></g><g fill="#ffffff" fill-opacity="1"><g transform="translate(116.458603, 50.603504)"><g><path d="M 1.28125 0 L 1.28125 -18.40625 L 5.078125 -18.40625 L 5.078125 -9.828125 L 5.109375 -9.828125 C 6.097656 -10.804688 7.148438 -11.296875 8.265625 -11.296875 C 8.804688 -11.296875 9.34375 -11.222656 9.875 -11.078125 C 10.414062 -10.941406 10.929688 -10.722656 11.421875 -10.421875 C 11.910156 -10.117188 12.304688 -9.691406 12.609375 -9.140625 C 12.921875 -8.597656 13.078125 -7.960938 13.078125 -7.234375 L 13.078125 0 L 9.296875 0 L 9.296875 -6.203125 C 9.296875 -6.773438 9.113281 -7.273438 8.75 -7.703125 C 8.382812 -8.128906 7.910156 -8.34375 7.328125 -8.34375 C 6.753906 -8.34375 6.234375 -8.117188 5.765625 -7.671875 C 5.304688 -7.234375 5.078125 -6.742188 5.078125 -6.203125 L 5.078125 0 Z M 1.28125 0 "/></g></g></g><g fill="#ffffff" fill-opacity="1"><g transform="translate(130.606582, 50.603504)"><g><path d="M 12.390625 -4.96875 L 4.4375 -4.96875 C 4.4375 -4.195312 4.679688 -3.625 5.171875 -3.25 C 5.671875 -2.882812 6.21875 -2.703125 6.8125 -2.703125 C 7.425781 -2.703125 7.910156 -2.78125 8.265625 -2.9375 C 8.617188 -3.101562 9.023438 -3.429688 9.484375 -3.921875 L 12.21875 -2.546875 C 11.082031 -0.628906 9.1875 0.328125 6.53125 0.328125 C 4.875 0.328125 3.453125 -0.238281 2.265625 -1.375 C 1.085938 -2.507812 0.5 -3.875 0.5 -5.46875 C 0.5 -7.070312 1.085938 -8.441406 2.265625 -9.578125 C 3.453125 -10.722656 4.875 -11.296875 6.53125 -11.296875 C 8.269531 -11.296875 9.6875 -10.789062 10.78125 -9.78125 C 11.875 -8.78125 12.421875 -7.347656 12.421875 -5.484375 C 12.421875 -5.222656 12.410156 -5.050781 12.390625 -4.96875 Z M 4.53125 -7.0625 L 8.71875 -7.0625 C 8.625 -7.632812 8.394531 -8.070312 8.03125 -8.375 C 7.664062 -8.6875 7.203125 -8.84375 6.640625 -8.84375 C 6.003906 -8.84375 5.5 -8.675781 5.125 -8.34375 C 4.757812 -8.019531 4.5625 -7.59375 4.53125 -7.0625 Z M 4.53125 -7.0625 "/></g></g></g></svg>